<svg xmlns="http://www.w3.org/2000/svg" width="16.812" height="19.001" viewBox="0 0 16.812 19.001"><defs><style>.a{stroke:#000;}</style></defs><path class="a" d="M16.8,15.1A4.466,4.466,0,0,1,15,11.5v-3a5.509,5.509,0,0,0-4-5.292V2.5a1.5,1.5,0,1,0-3,0v.708A5.51,5.51,0,0,0,4,8.5v3a4.468,4.468,0,0,1-1.8,3.6.5.5,0,0,0,.3.9H7.05A2.532,2.532,0,0,0,7,16.5a2.5,2.5,0,1,0,5,0,2.539,2.539,0,0,0-.05-.5H16.5a.5.5,0,0,0,.3-.9ZM9,2.5a.5.5,0,0,1,1,0v.523C9.835,3.008,9.669,3,9.5,3s-.335.008-.5.023Zm2,14A1.5,1.5,0,1,1,8.086,16h2.828a1.515,1.515,0,0,1,.086.5ZM3.742,15A5.566,5.566,0,0,0,4.4,14,5.435,5.435,0,0,0,5,11.5v-3a4.5,4.5,0,0,1,9,0v3a5.448,5.448,0,0,0,.6,2.5,5.531,5.531,0,0,0,.659,1H3.741Z" transform="translate(-1.487 -0.5)"/></svg>