<svg xmlns="http://www.w3.org/2000/svg" width="30" height="31.579" viewBox="0 0 30 31.579"><g transform="translate(0 0.001)"><path d="M14,6h1.579V7.579H14Z" transform="translate(8.105 3.474)"/><path d="M14,8h1.579V9.579H14Z" transform="translate(8.105 4.632)"/><path d="M14,10h1.579v1.579H14Z" transform="translate(8.105 5.79)"/><path d="M14,12h1.579v1.579H14Z" transform="translate(8.105 6.948)"/><path d="M14,16h1.579v1.579H14Z" transform="translate(8.105 9.264)"/><path d="M14,14h1.579v1.579H14Z" transform="translate(8.105 8.106)"/><path d="M6,6H7.579V7.579H6Z" transform="translate(3.474 3.474)"/><path d="M6,8H7.579V9.579H6Z" transform="translate(3.474 4.632)"/><path d="M6,10H7.579v1.579H6Z" transform="translate(3.474 5.79)"/><path d="M6,12H7.579v1.579H6Z" transform="translate(3.474 6.948)"/><path d="M6,16H7.579v1.579H6Z" transform="translate(3.474 9.264)"/><path d="M6,14H7.579v1.579H6Z" transform="translate(3.474 8.106)"/><path d="M4,6H5.579V7.579H4Z" transform="translate(2.316 3.474)"/><path d="M4,8H5.579V9.579H4Z" transform="translate(2.316 4.632)"/><path d="M4,10H5.579v1.579H4Z" transform="translate(2.316 5.79)"/><path d="M4,12H5.579v1.579H4Z" transform="translate(2.316 6.948)"/><path d="M4,16H5.579v1.579H4Z" transform="translate(2.316 9.264)"/><path d="M4,14H5.579v1.579H4Z" transform="translate(2.316 8.106)"/><path d="M8,6H9.579V7.579H8Z" transform="translate(4.632 3.474)"/><path d="M8,8H9.579V9.579H8Z" transform="translate(4.632 4.632)"/><path d="M8,10H9.579v1.579H8Z" transform="translate(4.632 5.79)"/><path d="M8,12H9.579v1.579H8Z" transform="translate(4.632 6.948)"/><path d="M8,16H9.579v1.579H8Z" transform="translate(4.632 9.264)"/><path d="M8,14H9.579v1.579H8Z" transform="translate(4.632 8.106)"/><path d="M29.211,30h-.789V8.685a3.14,3.14,0,0,0-2.038-2.828L18.947,3.378V.788A.791.791,0,0,0,17.931.032L3.654,4.316A3.049,3.049,0,0,0,1.579,7.1V30H.789a.789.789,0,1,0,0,1.579H29.211a.789.789,0,0,0,0-1.579ZM25.884,7.355a1.563,1.563,0,0,1,.958,1.329V30H18.947V5.044ZM3.158,7.106A1.476,1.476,0,0,1,4.108,5.83l13.26-3.979V30H3.158Z" transform="translate(0)"/></g></svg>