<svg xmlns="http://www.w3.org/2000/svg" width="27.611" height="34.974" viewBox="0 0 27.611 34.974"><g transform="translate(-2 -1)"><path d="M23.328,18.841H4.92A.92.92,0,1,1,4.92,17H23.328a.92.92,0,0,1,0,1.841Z" transform="translate(1.681 13.452)"/><path d="M28.691,4.681a.921.921,0,0,0-.92.92V33.213a.921.921,0,0,1-.92.92H6.6a2.761,2.761,0,0,1,0-5.522H23.168a2.764,2.764,0,0,0,2.761-2.761V3.761A2.764,2.764,0,0,0,23.168,1H4.761A2.764,2.764,0,0,0,2,3.761V31.372a4.608,4.608,0,0,0,4.6,4.6H26.85a2.764,2.764,0,0,0,2.761-2.761V5.6A.921.921,0,0,0,28.691,4.681ZM4.761,2.841H23.168a.921.921,0,0,1,.92.92V25.85a.921.921,0,0,1-.92.92H6.6a4.585,4.585,0,0,0-2.761.922V3.761A.921.921,0,0,1,4.761,2.841Z" transform="translate(0 0)"/></g></svg>