<svg xmlns="http://www.w3.org/2000/svg" width="21.012" height="18.897" viewBox="0 0 21.012 18.897">
  <path id="bubble" d="M.526,19.895a.526.526,0,0,1-.271-.978,6.538,6.538,0,0,0,2.78-3.346A7.209,7.209,0,0,1,0,9.895a6.47,6.47,0,0,1,.808-3.12A8.084,8.084,0,0,1,2.978,4.268,11.448,11.448,0,0,1,10,2a11.448,11.448,0,0,1,7.022,2.269,8.061,8.061,0,0,1,2.169,2.506,6.425,6.425,0,0,1,0,6.24,8.084,8.084,0,0,1-2.169,2.506A11.448,11.448,0,0,1,10,17.79a12.429,12.429,0,0,1-3.175-.405,21.832,21.832,0,0,1-2.3,1.337A9.422,9.422,0,0,1,.527,19.9ZM10,3.053c-4.934,0-8.947,3.069-8.947,6.842a6.27,6.27,0,0,0,2.9,5.044.528.528,0,0,1,.206.567A7.266,7.266,0,0,1,2.5,18.441a17.889,17.889,0,0,0,3.936-2.062.525.525,0,0,1,.443-.073A11.366,11.366,0,0,0,10,16.737c4.934,0,8.947-3.069,8.947-6.842S14.934,3.053,10,3.053Z" transform="translate(0.512 -1.499)" stroke="#000" stroke-width="1"/>
</svg>
