<svg xmlns="http://www.w3.org/2000/svg" width="30.314" height="27.126" viewBox="0 0 30.314 27.126"><path d="M.8,29.124a.8.8,0,0,1-.41-1.482A9.91,9.91,0,0,0,4.6,22.57a10.926,10.926,0,0,1-4.6-8.6A9.807,9.807,0,0,1,1.225,9.238a12.253,12.253,0,0,1,3.288-3.8A17.352,17.352,0,0,1,15.157,2,17.352,17.352,0,0,1,25.8,5.439a12.218,12.218,0,0,1,3.288,3.8,9.738,9.738,0,0,1,0,9.458,12.254,12.254,0,0,1-3.288,3.8,17.352,17.352,0,0,1-10.643,3.44,18.839,18.839,0,0,1-4.812-.614,33.092,33.092,0,0,1-3.493,2.026A14.281,14.281,0,0,1,.8,29.125ZM15.157,3.6C7.679,3.6,1.6,8.249,1.6,13.967a9.5,9.5,0,0,0,4.4,7.646.8.8,0,0,1,.313.86A11.014,11.014,0,0,1,3.785,26.92,27.115,27.115,0,0,0,9.75,23.795a.8.8,0,0,1,.672-.11,17.228,17.228,0,0,0,4.735.653c7.478,0,13.562-4.652,13.562-10.371S22.635,3.6,15.157,3.6Z" transform="translate(0 -1.999)"/></svg>