<svg xmlns="http://www.w3.org/2000/svg" width="20.012" height="18.002" viewBox="0 0 20.012 18.002"><defs><style>.a{stroke:#0d0d0d;}</style></defs><path class="a" d="M.5,19a.5.5,0,0,1-.257-.929,6.211,6.211,0,0,0,2.641-3.179A6.848,6.848,0,0,1,0,9.5,6.146,6.146,0,0,1,.768,6.536,7.68,7.68,0,0,1,2.829,4.155,10.876,10.876,0,0,1,9.5,2a10.876,10.876,0,0,1,6.671,2.156,7.658,7.658,0,0,1,2.061,2.381,6.1,6.1,0,0,1,0,5.928,7.68,7.68,0,0,1-2.061,2.381A10.876,10.876,0,0,1,9.5,17a11.808,11.808,0,0,1-3.016-.385,20.741,20.741,0,0,1-2.189,1.27A8.951,8.951,0,0,1,.5,19Zm9-16C4.813,3,1,5.916,1,9.5a5.956,5.956,0,0,0,2.756,4.792.5.5,0,0,1,.2.539,6.9,6.9,0,0,1-1.58,2.788A17,17,0,0,0,6.111,15.66a.5.5,0,0,1,.421-.069A10.8,10.8,0,0,0,9.5,16c4.687,0,8.5-2.916,8.5-6.5S14.187,3,9.5,3Z" transform="translate(0.512 -1.499)"/></svg>