<svg xmlns="http://www.w3.org/2000/svg" width="30.643" height="27.579" viewBox="0 0 30.643 27.579"><path d="M29.706,4.216C28.82,1.558,27.644,1,26.812,1c-.017,0-.035,0-.054,0a24.189,24.189,0,0,0-4.608,1.12C17.425,3.5,10.285,5.6,3.063,5.6,1.317,5.6,0,7.9,0,10.96s1.318,5.362,3.064,5.362c.565,0,1.131.012,1.693.037L7.309,26.514a2.835,2.835,0,0,0,2.649,2.065h2.012A1.7,1.7,0,0,0,13.605,26.1L9.657,16.837A91.622,91.622,0,0,1,22.15,19.8a24.313,24.313,0,0,0,4.608,1.12l.054,0c.83,0,2.007-.558,2.894-3.216a22.175,22.175,0,0,0,.936-6.743,22.175,22.175,0,0,0-.936-6.743Zm-5.192,6.743c0-.786.034-1.555.1-2.292.786.08,1.434,1.1,1.434,2.292s-.647,2.214-1.434,2.292c-.064-.737-.1-1.506-.1-2.292Zm-22.981,0c0-2.338.907-3.83,1.532-3.83a44.885,44.885,0,0,0,5.16-.313,14.2,14.2,0,0,0-.564,4.143A14.146,14.146,0,0,0,8.225,15.1a44.885,44.885,0,0,0-5.16-.313C2.44,14.789,1.533,13.3,1.533,10.958ZM12.2,26.7a.366.366,0,0,1,.04.273.366.366,0,0,1-.267.07H9.959A1.318,1.318,0,0,1,8.8,26.138L6.363,16.457c.513.041,1.025.09,1.532.149l4.3,10.1ZM9.942,15.33a11.564,11.564,0,0,1-.749-4.371,11.356,11.356,0,0,1,.748-4.369,92.932,92.932,0,0,0,12.64-3c.636-.187,1.243-.365,1.794-.519a9.988,9.988,0,0,0-.457,1.144,22.175,22.175,0,0,0-.936,6.743,22.175,22.175,0,0,0,.936,6.743,9.987,9.987,0,0,0,.457,1.144c-.552-.155-1.158-.332-1.794-.519a93.218,93.218,0,0,0-12.64-3Zm18.31,1.888c-.571,1.716-1.192,2.168-1.44,2.168s-.869-.453-1.44-2.168a15.24,15.24,0,0,1-.575-2.445,2.884,2.884,0,0,0,1.955-1.187,4.389,4.389,0,0,0,.826-2.626,4.4,4.4,0,0,0-.826-2.626A2.884,2.884,0,0,0,24.8,7.145,15.616,15.616,0,0,1,25.372,4.7c.571-1.716,1.192-2.169,1.44-2.169s.869.453,1.44,2.168a20.624,20.624,0,0,1,.858,6.259,20.624,20.624,0,0,1-.858,6.259Z" transform="translate(0.001 -1)"/></svg>