<svg xmlns="http://www.w3.org/2000/svg" width="46" height="46" viewBox="0 0 46 46">
  <g id="Business" transform="translate(-12 -89)">
    <g id="Ellipse_2" data-name="Ellipse 2" transform="translate(12 89)" fill="#fff" stroke="#888" stroke-width="1">
      <circle cx="23" cy="23" r="23" stroke="none"/>
      <circle cx="23" cy="23" r="22.5" fill="none"/>
    </g>
    <g id="idea" transform="translate(5.005 98)">
      <g id="Group_34" data-name="Group 34" transform="translate(29.666)">
        <g id="Group_33" data-name="Group 33" transform="translate(0)">
          <path id="Path_118" data-name="Path 118" d="M249.087,0a.4.4,0,0,0-.4.4V2.5a.4.4,0,0,0,.8,0V.4A.4.4,0,0,0,249.087,0Z" transform="translate(-248.687)"/>
        </g>
      </g>
      <g id="Group_36" data-name="Group 36" transform="translate(40.234 12.671)">
        <g id="Group_35" data-name="Group 35">
          <path id="Path_119" data-name="Path 119" d="M444.43,231.692h-2.1a.4.4,0,1,0,0,.8h2.1a.4.4,0,1,0,0-.8Z" transform="translate(-441.927 -231.692)"/>
        </g>
      </g>
      <g id="Group_38" data-name="Group 38" transform="translate(16.995 12.671)">
        <g id="Group_37" data-name="Group 37" transform="translate(0)">
          <path id="Path_120" data-name="Path 120" d="M19.5,231.692h-2.1a.4.4,0,1,0,0,.8h2.1a.4.4,0,1,0,0-.8Z" transform="translate(-16.995 -231.692)"/>
        </g>
      </g>
      <g id="Group_40" data-name="Group 40" transform="translate(37.139 20.144)">
        <g id="Group_39" data-name="Group 39">
          <path id="Path_121" data-name="Path 121" d="M387.5,369.938l-1.487-1.487a.4.4,0,1,0-.565.566l1.487,1.487a.4.4,0,1,0,.565-.566Z" transform="translate(-385.329 -368.334)"/>
        </g>
      </g>
      <g id="Group_42" data-name="Group 42" transform="translate(20.706 3.711)">
        <g id="Group_41" data-name="Group 41" transform="translate(0)">
          <path id="Path_122" data-name="Path 122" d="M87.027,69.465,85.54,67.978a.4.4,0,0,0-.566.566l1.487,1.487a.4.4,0,0,0,.566-.566Z" transform="translate(-84.857 -67.86)"/>
        </g>
      </g>
      <g id="Group_44" data-name="Group 44" transform="translate(37.139 3.711)">
        <g id="Group_43" data-name="Group 43" transform="translate(0)">
          <path id="Path_123" data-name="Path 123" d="M387.5,67.978a.4.4,0,0,0-.566,0l-1.487,1.487a.4.4,0,0,0,.565.566l1.487-1.487A.4.4,0,0,0,387.5,67.978Z" transform="translate(-385.328 -67.861)"/>
        </g>
      </g>
      <g id="Group_46" data-name="Group 46" transform="translate(20.706 20.144)">
        <g id="Group_45" data-name="Group 45" transform="translate(0)">
          <path id="Path_124" data-name="Path 124" d="M87.026,368.451a.4.4,0,0,0-.566,0l-1.487,1.487a.4.4,0,0,0,.566.566l1.487-1.487A.4.4,0,0,0,87.026,368.451Z" transform="translate(-84.856 -368.334)"/>
        </g>
      </g>
      <g id="Group_48" data-name="Group 48" transform="translate(22.581 4.888)">
        <g id="Group_47" data-name="Group 47">
          <path id="Path_125" data-name="Path 125" d="M133.965,95.437a.4.4,0,1,0-.785.152,6.742,6.742,0,0,1,.121,1.275,6.625,6.625,0,0,1-1.351,4.03,11.035,11.035,0,0,0-2.253,6.017h-6.163a11.074,11.074,0,0,0-.278-1.91,10.85,10.85,0,0,0-.347-1.168,10.62,10.62,0,0,0-.564-1.292,10.355,10.355,0,0,0-1.011-1.58A6.686,6.686,0,1,1,132.3,93.344a.4.4,0,1,0,.68-.422,7.481,7.481,0,0,0-6.366-3.544h-.053a7.485,7.485,0,0,0-5.86,12.074,9.55,9.55,0,0,1,.933,1.458,9.818,9.818,0,0,1,.522,1.194,10.041,10.041,0,0,1,.321,1.081,10.278,10.278,0,0,1,.264,1.882.674.674,0,0,0,.673.643v3.043a1.739,1.739,0,0,0,1.737,1.737h2.928a1.739,1.739,0,0,0,1.737-1.737v-3.043a.675.675,0,0,0,.673-.643,10.233,10.233,0,0,1,2.1-5.691,7.418,7.418,0,0,0,1.513-4.513A7.548,7.548,0,0,0,133.965,95.437Zm-5.886,16.254h-2.928a.938.938,0,0,1-.928-.809h4.783A.938.938,0,0,1,128.079,111.691Zm.937-3.38H127.4a.4.4,0,0,0,0,.8h1.619v.971h-4.8v-.971h.677a.4.4,0,0,0,0-.8h-.677v-.6h4.8Z" transform="translate(-119.13 -89.378)"/>
        </g>
      </g>
      <g id="Group_50" data-name="Group 50" transform="translate(27.66 9.484)">
        <g id="Group_49" data-name="Group 49">
          <path id="Path_126" data-name="Path 126" d="M214.853,177.186l-.036-.013V174.85l.059,0a2.418,2.418,0,0,1,.994.291.8.8,0,0,0,.318.115c.281,0,.428-.371.428-.57,0-.271-.317-.441-.583-.536a4.018,4.018,0,0,0-1.162-.2l-.053,0V173.6c0-.1-.138-.2-.274-.2-.163,0-.263.1-.263.2v.367l-.049.005a2.016,2.016,0,0,0-2.034,1.985c0,1.369,1.087,1.756,2.046,2.1l.036.013v2.674l-.059,0a2.227,2.227,0,0,1-1.383-.622c-.153-.13-.274-.233-.389-.233-.232,0-.45.321-.45.57,0,.49.867,1.217,2.226,1.239h.054v.394c0,.095.1.2.263.2.136,0,.274-.1.274-.2v-.42l.047-.007a2.077,2.077,0,0,0,1.948-2.2C216.813,178.026,215.845,177.55,214.853,177.186Zm-.508-.181-.074-.028c-.6-.225-1.088-.464-1.088-1.125,0-.548.38-.885,1.1-.975l.061-.008Zm.47,3.713-.065.012v-2.462l.076.033a1.333,1.333,0,0,1,1,1.278A1.1,1.1,0,0,1,214.816,180.718Z" transform="translate(-212 -173.407)"/>
        </g>
      </g>
    </g>
  </g>
</svg>
