<svg xmlns="http://www.w3.org/2000/svg" width="79" height="62.366" viewBox="0 0 79 62.366"><defs><style>.a{fill:#cfcfcf;}</style></defs><g transform="translate(0 -2.999)"><path class="a" d="M23.709,43.417A18.709,18.709,0,1,1,42.417,24.709,18.731,18.731,0,0,1,23.709,43.417Zm0-33.26A14.551,14.551,0,1,0,38.26,24.709,14.567,14.567,0,0,0,23.709,10.157Z" transform="translate(15.787 9.476)"/><path class="a" d="M72.755,65.365H6.236A6.244,6.244,0,0,1,0,59.129V17.554a6.244,6.244,0,0,1,6.236-6.236h6.236A9.611,9.611,0,0,0,18.1,8.986l2.436-2.436A13.5,13.5,0,0,1,29.106,3H49.894a13.5,13.5,0,0,1,8.569,3.55L60.9,8.986a9.627,9.627,0,0,0,5.629,2.332h6.236A6.244,6.244,0,0,1,79,17.554V59.129a6.244,6.244,0,0,1-6.236,6.236ZM6.236,15.476a2.079,2.079,0,0,0-2.079,2.079V59.129a2.079,2.079,0,0,0,2.079,2.079H72.755a2.079,2.079,0,0,0,2.079-2.079V17.554a2.079,2.079,0,0,0-2.079-2.079H66.519a13.5,13.5,0,0,1-8.569-3.55L55.515,9.489a9.627,9.627,0,0,0-5.629-2.332H29.1a9.611,9.611,0,0,0-5.629,2.332l-2.436,2.436a13.493,13.493,0,0,1-8.569,3.55H6.228Z" transform="translate(0 0)"/></g></svg>