<svg xmlns="http://www.w3.org/2000/svg" xmlns:xlink="http://www.w3.org/1999/xlink" width="32" height="30.6" viewBox="0 0 32 30.6">
  <defs>
    <filter id="ic_camera_enhance_24px" x="0" y="0" width="32" height="30.6" filterUnits="userSpaceOnUse">
      <feOffset dy="3" input="SourceAlpha"/>
      <feGaussianBlur stdDeviation="3" result="blur"/>
      <feFlood flood-opacity="0.161"/>
      <feComposite operator="in" in2="blur"/>
      <feComposite in="SourceGraphic"/>
    </filter>
  </defs>
  <g transform="matrix(1, 0, 0, 1, 0, 0)" filter="url(#ic_camera_enhance_24px)">
    <path id="ic_camera_enhance_24px-2" data-name="ic_camera_enhance_24px" d="M6.9,3,5.619,4.4H3.4A1.4,1.4,0,0,0,2,5.8v8.4a1.4,1.4,0,0,0,1.4,1.4H14.6A1.4,1.4,0,0,0,16,14.2V5.8a1.4,1.4,0,0,0-1.4-1.4H12.381L11.1,3ZM9,13.5A3.5,3.5,0,1,1,12.5,10,3.5,3.5,0,0,1,9,13.5Zm0-.7.875-1.925L11.8,10,9.875,9.125,9,7.2,8.125,9.125,6.2,10l1.925.875Z" transform="translate(7 3)"/>
  </g>
</svg>
