<svg xmlns="http://www.w3.org/2000/svg" width="25" height="16.385" viewBox="0 0 25 16.385">
  <g id="camera-video" transform="translate(0 -3.945)">
    <path id="Path_243" data-name="Path 243" d="M21.142,20.33h0a1.725,1.725,0,0,1-1.008-.36l-4.786-3.439A3.419,3.419,0,0,1,14,14.012v-3.75a3.414,3.414,0,0,1,1.349-2.519L20.135,4.3a1.725,1.725,0,0,1,1.008-.36,1.2,1.2,0,0,1,1.21,1.316v13.75a1.387,1.387,0,0,1-.264.867,1.176,1.176,0,0,1-.945.449ZM20.96,5.314,16.217,8.72a2.266,2.266,0,0,0-.825,1.543v3.75a2.263,2.263,0,0,0,.825,1.542l4.743,3.406V5.313Z" transform="translate(2.648 0)"/>
    <path id="Path_244" data-name="Path 244" d="M16.008,20.235H2.088A1.992,1.992,0,0,1,0,18.361V5.873A1.992,1.992,0,0,1,2.088,4h13.92A1.992,1.992,0,0,1,18.1,5.873V18.361A1.992,1.992,0,0,1,16.008,20.235ZM2.088,5.249a.663.663,0,0,0-.7.624V18.361a.663.663,0,0,0,.7.624h13.92a.663.663,0,0,0,.7-.624V5.873a.663.663,0,0,0-.7-.624Z" transform="translate(0 0.022)"/>
  </g>
</svg>
