<svg id="chip" xmlns="http://www.w3.org/2000/svg" width="27.643" height="27.643" viewBox="0 0 27.643 27.643">
  <g id="Group_25" data-name="Group 25" transform="translate(5.194 0)">
    <g id="Group_24" data-name="Group 24">
      <path id="Path_108" data-name="Path 108" d="M118.25,13.418h-6.52V12.5h1.759a.4.4,0,0,0,0-.81H111.73v-.921h1.221a1.692,1.692,0,0,0,1.2-.5L116.819,7.6a1.27,1.27,0,1,0-.573-.573l-2.663,2.663a.888.888,0,0,1-.632.262H111.73V9.062a2.139,2.139,0,0,0-2.136-2.136H108.7V3.341a1.27,1.27,0,1,0-.81,0V6.926h-.921V5.167a.4.4,0,1,0-.81,0V6.926h-.921V.406a.4.4,0,1,0-.81,0v6.52h-.921V5.167a.4.4,0,1,0-.81,0V6.926h-.921V5.7a1.692,1.692,0,0,0-.5-1.2L98.613,1.836a1.271,1.271,0,1,0-.573.573L100.7,5.073a.887.887,0,0,1,.262.632V6.926h-.893a2.145,2.145,0,0,0-.534.067.4.4,0,0,0,.2.784,1.334,1.334,0,0,1,.332-.042h9.521a1.328,1.328,0,0,1,1.326,1.326v9.521a1.333,1.333,0,0,1-.042.332.4.4,0,1,0,.784.2,2.143,2.143,0,0,0,.067-.533V17.69h3.585a1.27,1.27,0,1,0,0-.81H111.73v-.921h1.759a.4.4,0,0,0,0-.81H111.73v-.921h6.52a.4.4,0,1,0,0-.81Zm-1.191-7.278a.461.461,0,1,1-.135.326A.458.458,0,0,1,117.058,6.139ZM97.8,1.6a.46.46,0,1,1,0-.652A.461.461,0,0,1,97.8,1.6Zm10.494,1a.461.461,0,1,1,.461-.461A.461.461,0,0,1,108.3,2.6Zm8.223,14.226a.461.461,0,1,1-.461.461A.461.461,0,0,1,116.518,16.824Z" transform="translate(-96.206 -0.001)"/>
    </g>
  </g>
  <g id="Group_27" data-name="Group 27" transform="translate(0 8.223)">
    <g id="Group_26" data-name="Group 26">
      <path id="Path_109" data-name="Path 109" d="M22.077,169.557a1.272,1.272,0,0,0-1.463-.239l-2.664-2.664a.887.887,0,0,1-.262-.632V164.8h.893a2.143,2.143,0,0,0,.534-.067.4.4,0,1,0-.2-.784,1.333,1.333,0,0,1-.332.042H9.061a1.328,1.328,0,0,1-1.326-1.326v-9.521a1.332,1.332,0,0,1,.042-.332.4.4,0,1,0-.784-.2,2.141,2.141,0,0,0-.067.534v.893H3.34a1.27,1.27,0,1,0,0,.81H6.925v.921H5.166a.4.4,0,0,0,0,.81H6.925v.921H.4a.4.4,0,0,0,0,.81h6.52v.921H5.166a.4.4,0,0,0,0,.81H6.925v.921H5.7a1.692,1.692,0,0,0-1.2.5l-2.663,2.663a1.269,1.269,0,1,0,.573.573l2.663-2.663a.888.888,0,0,1,.632-.262H6.925v.893A2.138,2.138,0,0,0,9.061,164.8h.893v3.585a1.27,1.27,0,1,0,.81,0V164.8h.921v1.759a.4.4,0,0,0,.81,0V164.8h.921v6.52a.4.4,0,0,0,.81,0V164.8h.921v1.759a.4.4,0,1,0,.81,0V164.8h.921v1.221a1.692,1.692,0,0,0,.5,1.2l2.664,2.664a1.27,1.27,0,1,0,2.036-.334ZM2.136,154.9a.461.461,0,1,1,.461-.461A.461.461,0,0,1,2.136,154.9ZM1.6,165.588a.461.461,0,1,1,.135-.326A.458.458,0,0,1,1.6,165.588Zm9.224,4a.461.461,0,1,1-.461-.461A.461.461,0,0,1,10.82,169.59ZM21.5,170.781a.46.46,0,1,1,0-.651A.461.461,0,0,1,21.5,170.781Z" transform="translate(0 -152.306)"/>
    </g>
  </g>
  <g id="Group_29" data-name="Group 29" transform="translate(9.522 9.089)">
    <g id="Group_28" data-name="Group 28">
      <path id="Path_110" data-name="Path 110" d="M184.957,171.991a1.956,1.956,0,0,0-1.5-1.838,1.382,1.382,0,0,0,.04-.326,1.561,1.561,0,0,0-1.622-1.487,1.684,1.684,0,0,0-1.217.506,1.684,1.684,0,0,0-1.217-.506,1.561,1.561,0,0,0-1.622,1.487,1.382,1.382,0,0,0,.04.326,1.956,1.956,0,0,0-1.5,1.838,1.779,1.779,0,0,0,.426,1.152,2,2,0,0,0-.426,1.228,2.085,2.085,0,0,0,.974,1.73h0a1.792,1.792,0,0,0,1.866,1.7,1.932,1.932,0,0,0,1.461-.646,1.932,1.932,0,0,0,1.461.646,1.8,1.8,0,0,0,1.862-1.6,1.893,1.893,0,0,0,.978-1.62,1.825,1.825,0,0,0-.563-1.3A1.825,1.825,0,0,0,184.957,171.991Zm-1.433,1.656a1.08,1.08,0,0,1,.623.94,1.036,1.036,0,0,1-.357.761,1.818,1.818,0,0,0-1.065-.857.4.4,0,0,0-.243.773.919.919,0,0,1,.69.838,1.07,1.07,0,0,1-2.111,0v-2.6a.986.986,0,0,1,1.056-.893.4.4,0,0,0,0-.81,1.98,1.98,0,0,0-1.056.3v-.517a.4.4,0,1,0-.81,0v2.248a1.928,1.928,0,0,0-.447-.207.4.4,0,0,0-.243.773.919.919,0,0,1,.69.838v.866a1.07,1.07,0,0,1-2.111,0,.816.816,0,0,1,.252-.578.4.4,0,0,0-.571-.574,1.723,1.723,0,0,0-.25.314,1.235,1.235,0,0,1-.4-.893,1.379,1.379,0,0,1,1.145-1.282.4.4,0,1,0-.181-.789,2.467,2.467,0,0,0-.743.3.977.977,0,0,1-.221-.612,1.216,1.216,0,0,1,1.289-1.11h.011a.4.4,0,0,0,.344-.618l-.009-.015-.005-.007-.02-.026h0a.6.6,0,0,1-.148-.388.826.826,0,0,1,1.625,0,.4.4,0,0,0,.81,0,.826.826,0,0,1,1.625,0,.569.569,0,0,1-.061.255,2.249,2.249,0,0,0-.665.167.4.4,0,0,0,.315.746,1.462,1.462,0,0,1,.56-.113h.022a1.215,1.215,0,0,1,1.289,1.11,1.08,1.08,0,0,1-.623.94.4.4,0,0,0,0,.716Z" transform="translate(-176.357 -168.34)"/>
    </g>
  </g>
</svg>
