<svg xmlns="http://www.w3.org/2000/svg" width="30" height="30" viewBox="0 0 30 30"><g transform="translate(-0.296 -0.296)"><path d="M11.635,30.3a.762.762,0,0,1-.193-.025,15.386,15.386,0,0,1-3.964-1.637A.774.774,0,0,1,7.191,27.6,3.094,3.094,0,0,0,3,23.4a.774.774,0,0,1-1.037-.288A15.408,15.408,0,0,1,.321,19.15a.773.773,0,0,1,.5-.924A3.09,3.09,0,0,0,2.929,15.3a3.088,3.088,0,0,0-2.106-2.93.773.773,0,0,1-.5-.924A15.386,15.386,0,0,1,1.958,7.478.774.774,0,0,1,3,7.191,3.094,3.094,0,0,0,7.191,3a.774.774,0,0,1,.288-1.037A15.408,15.408,0,0,1,11.442.321a.773.773,0,0,1,.924.5A3.09,3.09,0,0,0,15.3,2.929,3.088,3.088,0,0,0,18.226.823a.774.774,0,0,1,.924-.5,15.386,15.386,0,0,1,3.964,1.637A.774.774,0,0,1,23.4,3a3.094,3.094,0,0,0,4.2,4.2.774.774,0,0,1,1.037.288,15.408,15.408,0,0,1,1.637,3.964.773.773,0,0,1-.5.924,3.091,3.091,0,0,0,0,5.859.773.773,0,0,1,.5.924,15.386,15.386,0,0,1-1.637,3.964A.774.774,0,0,1,27.6,23.4a3.094,3.094,0,0,0-4.2,4.2.774.774,0,0,1-.288,1.037,15.408,15.408,0,0,1-3.964,1.637.773.773,0,0,1-.924-.5,3.091,3.091,0,0,0-5.859,0,.776.776,0,0,1-.733.527ZM15.3,26.12A4.638,4.638,0,0,1,19.4,28.6a13.943,13.943,0,0,0,2.334-.962,4.64,4.64,0,0,1,5.9-5.9A13.762,13.762,0,0,0,28.6,19.4a4.64,4.64,0,0,1,0-8.209,13.943,13.943,0,0,0-.962-2.334,4.64,4.64,0,0,1-5.9-5.9A13.761,13.761,0,0,0,19.4,2a4.634,4.634,0,0,1-4.1,2.477A4.636,4.636,0,0,1,11.193,2a13.814,13.814,0,0,0-2.334.962,4.64,4.64,0,0,1-5.9,5.9A13.761,13.761,0,0,0,2,11.192a4.634,4.634,0,0,1,2.477,4.1A4.636,4.636,0,0,1,2,19.4a13.813,13.813,0,0,0,.962,2.334,4.64,4.64,0,0,1,5.9,5.9,13.762,13.762,0,0,0,2.334.962,4.634,4.634,0,0,1,4.1-2.477Z" transform="translate(0 0)"/><path d="M11.019,15.039a4.019,4.019,0,1,1,4.019-4.019A4.024,4.024,0,0,1,11.019,15.039Zm0-6.7a2.68,2.68,0,1,0,2.68,2.68A2.682,2.682,0,0,0,11.019,8.34Z" transform="translate(4.278 4.278)"/></g></svg>