<svg xmlns="http://www.w3.org/2000/svg" width="46.403" height="46.403" viewBox="0 0 46.403 46.403">
  <g id="Group_3" data-name="Group 3" transform="translate(-12 -89)">
    <g id="Ellipse_2" data-name="Ellipse 2" transform="translate(12 89)" fill="#fff" stroke="#888" stroke-width="1">
      <circle cx="23.201" cy="23.201" r="23.201" stroke="none"/>
      <circle cx="23.201" cy="23.201" r="22.701" fill="none"/>
    </g>
    <g id="paint-palette" transform="translate(23.048 100.048)">
      <g id="Group_9" data-name="Group 9" transform="translate(15.854 10.991)">
        <g id="Group_8" data-name="Group 8">
          <circle id="Ellipse_3" data-name="Ellipse 3" cx="0.486" cy="0.486" r="0.486"/>
        </g>
      </g>
      <g id="Group_11" data-name="Group 11" transform="translate(9.063 13.556)">
        <g id="Group_10" data-name="Group 10">
          <path id="Path_100" data-name="Path 100" d="M195.653,278.744a.486.486,0,0,0-.552.41,2.65,2.65,0,0,1-2.029,1.991,3.889,3.889,0,0,1-3.934-.873.486.486,0,1,0-.716.658,4.286,4.286,0,0,0,2.342,1.28,5.185,5.185,0,0,0,1.018.1,5.4,5.4,0,0,0,1.576-.234,3.589,3.589,0,0,0,2.706-2.779A.486.486,0,0,0,195.653,278.744Z" transform="translate(-188.293 -278.738)"/>
        </g>
      </g>
      <g id="Group_13" data-name="Group 13" transform="translate(0)">
        <g id="Group_12" data-name="Group 12" transform="translate(0)">
          <path id="Path_101" data-name="Path 101" d="M25.123,9.261A6.022,6.022,0,0,0,21.551,7.3a27.592,27.592,0,0,0,3.484-2.717c1.318-1.256,1.761-2.139,1.391-2.778-.411-.712-1.6-.707-3.732.016A37.349,37.349,0,0,0,16.365,4.81c-.393.227-.783.459-1.164.694A2.612,2.612,0,0,1,15.728,3,1.859,1.859,0,0,0,16,1.039,1.964,1.964,0,0,0,14.158,0h-.023A12.072,12.072,0,0,0,5.963,3.3,12.257,12.257,0,0,0,1.989,11.23,12.492,12.492,0,0,0,14.39,24.9,13.268,13.268,0,0,0,19.6,23.886a11.72,11.72,0,0,0,3.836-2.614,11.552,11.552,0,0,0,2.373-3.549,10.293,10.293,0,0,0,.845-3.843A6.783,6.783,0,0,0,25.123,9.261ZM15.258,6.614c.515-.325,1.051-.648,1.594-.961a37.5,37.5,0,0,1,5.9-2.819c1.873-.663,2.64-.62,2.819-.534-.015.113-.156.617-1.385,1.749a30.945,30.945,0,0,1-4.22,3.13c-.536.339-1.093.677-1.657,1-.777.449-1.554.868-2.317,1.252a7.287,7.287,0,0,0-1.379-2.4Q14.931,6.82,15.258,6.614Zm-.145,3.249a24.939,24.939,0,0,1-3.64,1.436,2.427,2.427,0,0,0-.734-1.294A25.01,25.01,0,0,1,13.8,7.574a6.341,6.341,0,0,1,1.312,2.289Zm10.566,4c-.069,4.84-4.4,10.063-11.289,10.063A11.479,11.479,0,0,1,14.135.973h.022a1.009,1.009,0,0,1,.968.49.886.886,0,0,1-.16.938,3.57,3.57,0,0,0-.6,3.63c-.261.168-.517.337-.765.5l0,0A25.905,25.905,0,0,0,9.874,9.492a2.419,2.419,0,0,0-2,.2c-1.01.584-2.337,3.3-2.593,3.843a.486.486,0,0,0,.4.693c.269.022,1.032.077,1.882.077a6.628,6.628,0,0,0,2.743-.4,2.426,2.426,0,0,0,1.16-1.59,25.728,25.728,0,0,0,4.439-1.748c.946-.46,1.918-.978,2.891-1.539.493-.285.981-.579,1.455-.875h.009C24.314,8.264,25.717,11.177,25.678,13.865Zm-15.13-1.98a1.457,1.457,0,0,1-.727,1.172,9.455,9.455,0,0,1-3.337.242A9.455,9.455,0,0,1,8.362,10.53a1.46,1.46,0,0,1,2.186,1.355Z" transform="translate(-1.94)"/>
        </g>
      </g>
      <g id="Group_15" data-name="Group 15" transform="translate(6.613 3.008)">
        <g id="Group_14" data-name="Group 14">
          <path id="Path_102" data-name="Path 102" d="M139.867,61.84a1.945,1.945,0,1,0,1.945,1.945A1.948,1.948,0,0,0,139.867,61.84Zm0,2.918a.973.973,0,1,1,.973-.973A.974.974,0,0,1,139.867,64.758Z" transform="translate(-137.922 -61.84)"/>
        </g>
      </g>
      <g id="Group_17" data-name="Group 17" transform="translate(4.182 16.076)">
        <g id="Group_16" data-name="Group 16">
          <path id="Path_103" data-name="Path 103" d="M89.867,330.55a1.945,1.945,0,1,0,1.945,1.945A1.948,1.948,0,0,0,89.867,330.55Zm0,2.918a.973.973,0,1,1,.973-.973A.974.974,0,0,1,89.867,333.468Z" transform="translate(-87.922 -330.55)"/>
        </g>
      </g>
      <g id="Group_19" data-name="Group 19" transform="translate(9.045 18.994)">
        <g id="Group_18" data-name="Group 18">
          <path id="Path_104" data-name="Path 104" d="M189.867,390.55a1.945,1.945,0,1,0,1.945,1.945A1.948,1.948,0,0,0,189.867,390.55Zm0,2.918a.973.973,0,1,1,.973-.973A.974.974,0,0,1,189.867,393.468Z" transform="translate(-187.922 -390.55)"/>
        </g>
      </g>
      <g id="Group_21" data-name="Group 21" transform="translate(14.881 18.022)">
        <g id="Group_20" data-name="Group 20">
          <path id="Path_105" data-name="Path 105" d="M309.867,370.55a1.945,1.945,0,1,0,1.945,1.945A1.948,1.948,0,0,0,309.867,370.55Zm0,2.918a.973.973,0,1,1,.973-.973A.974.974,0,0,1,309.867,373.468Z" transform="translate(-307.922 -370.55)"/>
        </g>
      </g>
      <g id="Group_23" data-name="Group 23" transform="translate(18.772 13.158)">
        <g id="Group_22" data-name="Group 22">
          <path id="Path_106" data-name="Path 106" d="M389.867,270.55a1.945,1.945,0,1,0,1.945,1.945A1.948,1.948,0,0,0,389.867,270.55Zm0,2.918a.973.973,0,1,1,.973-.973A.974.974,0,0,1,389.867,273.468Z" transform="translate(-387.922 -270.55)"/>
        </g>
      </g>
    </g>
  </g>
</svg>
