<svg xmlns="http://www.w3.org/2000/svg" width="19" height="27.104" viewBox="0 0 19 27.104">
  <g id="dinner" transform="translate(-2.309)">
    <path id="Path_342" data-name="Path 342" d="M8,.677C8,.3,7.776,0,7.5,0S7,.3,7,.677a25.2,25.2,0,0,0,.455,4.436,5.072,5.072,0,0,1,.13,2.454c-.186.317-.717.5-1.581.55,0-.22,0-.442,0-.664V2.034c0-.374-.224-.677-.5-.677s-.5.3-.5.677v5.42c0,.224,0,.444,0,.664-.861-.05-1.391-.236-1.577-.553a5.067,5.067,0,0,1,.128-2.458A25.228,25.228,0,0,0,4,.68C4,.306,3.776,0,3.5,0S3,.306,3,.68A23.773,23.773,0,0,1,2.573,4.8c-.258,1.515-.461,2.713.064,3.607A2.581,2.581,0,0,0,4.97,9.474c-.112,3.78-.516,7.032-.851,9.725-.446,3.583-.74,5.948.012,7.153A1.523,1.523,0,0,0,5.5,27.1a1.523,1.523,0,0,0,1.37-.752c.752-1.206.458-3.574.012-7.16-.334-2.69-.738-5.94-.851-9.718A2.577,2.577,0,0,0,8.369,8.413c.524-.893.32-2.088.062-3.6A23.726,23.726,0,0,1,8,.68Zm-1.894,24.8a.626.626,0,0,1-.606.272.626.626,0,0,1-.606-.271c-.452-.725-.145-3.194.211-6.053.129-1.033.267-2.148.4-3.343.129,1.194.267,2.3.395,3.337.356,2.862.663,5.333.211,6.06Z"/>
    <path id="Path_343" data-name="Path 343" d="M15.882,19.19A91.19,91.19,0,0,1,15,7.453V.677a.675.675,0,0,0-.372-.654.458.458,0,0,0-.562.318c-2.019,4.789-3.016,12.1-3.058,12.411a.857.857,0,0,0,.108.556.463.463,0,0,0,.384.244h2.235c-.175,2.092-.409,3.977-.617,5.645-.446,3.583-.74,5.949.012,7.153a1.624,1.624,0,0,0,2.74,0c.752-1.206.458-3.575.012-7.16ZM12.111,12.2A66.963,66.963,0,0,1,14,3.635V7.453c0,1.675-.063,3.256-.163,4.743H12.11Zm2.995,13.278a.626.626,0,0,1-.606.272.626.626,0,0,1-.606-.271c-.452-.725-.145-3.194.211-6.053.129-1.033.267-2.148.4-3.343.129,1.194.267,2.306.4,3.337.356,2.862.663,5.333.211,6.06Z" transform="translate(4.978)"/>
  </g>
</svg>
