<svg xmlns="http://www.w3.org/2000/svg" width="30.772" height="30.773" viewBox="0 0 30.772 30.773"><path d="M26.266,4.507A15.386,15.386,0,1,0,4.507,26.266,15.386,15.386,0,1,0,26.266,4.507Zm2.04,5.9c-.3-.54-1.054-.8-2.039-1.132-1.057-.36-1.431-1.446-1.863-2.7a5.8,5.8,0,0,0-1.685-2.922A13.927,13.927,0,0,1,28.306,10.4ZM23.989,15.68a3.89,3.89,0,0,1-1.057,3.573,4.8,4.8,0,0,0-.771,1.517c-.5,1.34-.975,2.606-2.994,2.625a2.63,2.63,0,0,1-.36-1.128c-.131-.742-.206-1.7-.288-2.716a28.7,28.7,0,0,0-.648-4.788c-.492-1.873-1.319-2.979-2.525-3.382A5.12,5.12,0,0,0,13.7,11.12a9.674,9.674,0,0,0-1.157.086,6.841,6.841,0,0,1-.731.062h0c-.36,0-.768,0-1.271-1.151a4.855,4.855,0,0,1,1.929-5.7,5.1,5.1,0,0,1,2.68-1.094,4.426,4.426,0,0,1,2.065.666,4.909,4.909,0,0,0,2.436.622c.234,0,.446-.012.651-.025.172-.011.334-.02.485-.02a1.5,1.5,0,0,1,.934.263,4.459,4.459,0,0,1,1.225,2.243C23.441,8.5,24,10.127,25.772,10.73c.238.082.648.22.939.342-.251.258-.669.632-1.08,1-.265.237-.565.5-.9.808a2.9,2.9,0,0,0-.745,2.8ZM1.54,15.268c.166.029.345.065.529.1a5.883,5.883,0,0,1,1.446.445,5.505,5.505,0,0,1-.355.546,2.5,2.5,0,0,0-.674,1.953,3.306,3.306,0,0,1-.158,1.679,13.787,13.787,0,0,1-.789-4.61c0-.04,0-.078,0-.118ZM15.386,29.234a13.861,13.861,0,0,1-12.2-7.3,6.263,6.263,0,0,0,.8-3.953,3.133,3.133,0,0,1,.431-.726c.417-.592.935-1.328.551-2.108-.269-.548-.991-.917-2.409-1.237-.329-.074-.649-.134-.922-.182A13.841,13.841,0,0,1,22.081,3.271a3.128,3.128,0,0,0-1.292-.248c-.2,0-.389.011-.577.023s-.372.022-.56.022a3.4,3.4,0,0,1-1.711-.442,5.828,5.828,0,0,0-2.788-.846,6.423,6.423,0,0,0-3.528,1.348A6.564,6.564,0,0,0,9,6.648a5.848,5.848,0,0,0,.134,4.084c.626,1.434,1.452,2.074,2.68,2.074h0a7.719,7.719,0,0,0,.911-.072,8.325,8.325,0,0,1,.977-.075,3.565,3.565,0,0,1,1.156.182c.675.226,1.174.983,1.525,2.314a27.547,27.547,0,0,1,.6,4.517,24.909,24.909,0,0,0,.4,3.31,3.674,3.674,0,0,0,.492,1.251,1.5,1.5,0,0,0,1.248.7,4.156,4.156,0,0,0,3.23-1.3A6.957,6.957,0,0,0,23.6,21.31a4.14,4.14,0,0,1,.479-1.034,5.361,5.361,0,0,0,1.437-4.767c-.1-.868-.1-1.176.252-1.5.326-.3.623-.563.885-.8.559-.5.962-.859,1.245-1.166a1.581,1.581,0,0,0,.523-1.331.065.065,0,0,1,0-.017A13.849,13.849,0,0,1,15.383,29.234Z"/></svg>