<svg xmlns="http://www.w3.org/2000/svg" width="14.349" height="17.04" viewBox="0 0 14.349 17.04">
  <g id="file-add" transform="translate(-2 -1)">
    <path id="Path_256" data-name="Path 256" d="M16.218,5.167,12.183,1.131A.448.448,0,0,0,11.865,1H3.345A1.347,1.347,0,0,0,2,2.345V16.695A1.347,1.347,0,0,0,3.345,18.04H15a1.347,1.347,0,0,0,1.345-1.345V5.484A.452.452,0,0,0,16.218,5.167Zm-.952.317H12.314a.449.449,0,0,1-.448-.448V2.082ZM15,17.143H3.345a.449.449,0,0,1-.448-.448V2.345A.449.449,0,0,1,3.345,1.9h7.623V5.036a1.347,1.347,0,0,0,1.345,1.345h3.139V16.695A.449.449,0,0,1,15,17.143Z"/>
    <path id="Path_257" data-name="Path 257" d="M10.829,12.69H8.587V10.448a.448.448,0,1,0-.9,0V12.69H5.448a.448.448,0,1,0,0,.9H7.69v2.242a.448.448,0,1,0,.9,0V13.587h2.242a.448.448,0,1,0,0-.9Z" transform="translate(-0.31 -0.929)"/>
  </g>
</svg>
