<svg xmlns="http://www.w3.org/2000/svg" width="30.174" height="27.254" viewBox="0 0 30.174 27.254"><defs><style>.a{fill:#434343;}</style></defs><path class="a" d="M29.982,17.369,16.66,2.646a2.1,2.1,0,0,0-1.572-.709h0a2.106,2.106,0,0,0-1.572.709L.195,17.369A.754.754,0,1,0,1.313,18.38l3.212-3.55v12.1a2.266,2.266,0,0,0,2.263,2.263h16.6a2.266,2.266,0,0,0,2.263-2.263V14.83l3.212,3.55a.754.754,0,1,0,1.118-1.012ZM18.106,27.682H12.07v-6.79a.755.755,0,0,1,.754-.754h4.526a.755.755,0,0,1,.754.754Zm6.035-.754a.755.755,0,0,1-.754.754H19.615v-6.79a2.266,2.266,0,0,0-2.263-2.263H12.825a2.266,2.266,0,0,0-2.263,2.263v6.79H6.79a.755.755,0,0,1-.754-.754V13.163l8.6-9.506a.588.588,0,0,1,.905,0l8.6,9.506Z" transform="translate(0 -1.937)"/></svg>