<svg xmlns="http://www.w3.org/2000/svg" width="20.641" height="21.788" viewBox="0 0 20.641 21.788">
  <path id="ic_mic_off_24px" d="M21.347,12.32H19.4a5.864,5.864,0,0,1-.493,2.351l1.41,1.41A7.551,7.551,0,0,0,21.347,12.32Zm-4.61.195c0-.069.023-.126.023-.195V5.44a3.44,3.44,0,0,0-6.88,0v.206ZM4.456,3.147,3,4.6l6.892,6.892v.826a3.426,3.426,0,0,0,3.429,3.44,3.235,3.235,0,0,0,.745-.092l1.9,1.9a6.3,6.3,0,0,1-2.649.6A5.95,5.95,0,0,1,7.243,12.32H5.293a8.008,8.008,0,0,0,6.88,7.706v3.761h2.293V20.026a8.042,8.042,0,0,0,2.913-1.032l4.8,4.793,1.456-1.456Z" transform="translate(-3 -2)" fill="rgba(13,13,13,0.97)"/>
</svg>
