<svg xmlns="http://www.w3.org/2000/svg" width="27.167" height="29.099" viewBox="0 0 27.167 29.099">
  <g id="idea" transform="translate(-16.995)">
    <g id="Group_34" data-name="Group 34" transform="translate(30.163)">
      <g id="Group_33" data-name="Group 33" transform="translate(0)">
        <path id="Path_118" data-name="Path 118" d="M249.1,0a.416.416,0,0,0-.416.416V2.6a.416.416,0,0,0,.831,0V.416A.416.416,0,0,0,249.1,0Z" transform="translate(-248.687 0)"/>
      </g>
    </g>
    <g id="Group_36" data-name="Group 36" transform="translate(41.146 13.168)">
      <g id="Group_35" data-name="Group 35">
        <path id="Path_119" data-name="Path 119" d="M444.528,231.692h-2.185a.416.416,0,1,0,0,.831h2.185a.416.416,0,1,0,0-.831Z" transform="translate(-441.927 -231.692)"/>
      </g>
    </g>
    <g id="Group_38" data-name="Group 38" transform="translate(16.995 13.168)">
      <g id="Group_37" data-name="Group 37" transform="translate(0)">
        <path id="Path_120" data-name="Path 120" d="M19.6,231.692H17.411a.416.416,0,1,0,0,.831H19.6a.416.416,0,1,0,0-.831Z" transform="translate(-16.995 -231.692)"/>
      </g>
    </g>
    <g id="Group_40" data-name="Group 40" transform="translate(37.929 20.934)">
      <g id="Group_39" data-name="Group 39">
        <path id="Path_121" data-name="Path 121" d="M387.584,370l-1.545-1.545a.416.416,0,1,0-.588.588L387,370.589a.416.416,0,1,0,.588-.588Z" transform="translate(-385.329 -368.334)"/>
      </g>
    </g>
    <g id="Group_42" data-name="Group 42" transform="translate(20.852 3.857)">
      <g id="Group_41" data-name="Group 41" transform="translate(0)">
        <path id="Path_122" data-name="Path 122" d="M87.112,69.528l-1.545-1.545a.416.416,0,0,0-.588.588l1.545,1.545a.416.416,0,0,0,.588-.588Z" transform="translate(-84.857 -67.86)"/>
      </g>
    </g>
    <g id="Group_44" data-name="Group 44" transform="translate(37.929 3.857)">
      <g id="Group_43" data-name="Group 43" transform="translate(0)">
        <path id="Path_123" data-name="Path 123" d="M387.583,67.983a.416.416,0,0,0-.588,0l-1.545,1.545a.416.416,0,0,0,.588.588l1.545-1.545A.416.416,0,0,0,387.583,67.983Z" transform="translate(-385.328 -67.861)"/>
      </g>
    </g>
    <g id="Group_46" data-name="Group 46" transform="translate(20.852 20.934)">
      <g id="Group_45" data-name="Group 45" transform="translate(0)">
        <path id="Path_124" data-name="Path 124" d="M87.111,368.455a.416.416,0,0,0-.588,0L84.978,370a.416.416,0,0,0,.588.588l1.545-1.545A.416.416,0,0,0,87.111,368.455Z" transform="translate(-84.856 -368.334)"/>
      </g>
    </g>
    <g id="Group_48" data-name="Group 48" transform="translate(22.8 5.08)">
      <g id="Group_47" data-name="Group 47">
        <path id="Path_125" data-name="Path 125" d="M134.547,95.674a.416.416,0,1,0-.816.158,7.006,7.006,0,0,1,.126,1.325,6.885,6.885,0,0,1-1.4,4.188,11.468,11.468,0,0,0-2.341,6.253h-6.4a11.507,11.507,0,0,0-.289-1.985,11.276,11.276,0,0,0-.36-1.213,11.036,11.036,0,0,0-.586-1.343,10.761,10.761,0,0,0-1.051-1.642,6.948,6.948,0,1,1,11.4-7.916.416.416,0,1,0,.706-.438,7.774,7.774,0,0,0-6.616-3.683h-.055a7.779,7.779,0,0,0-6.09,12.547,9.924,9.924,0,0,1,.969,1.515,10.2,10.2,0,0,1,.542,1.241,10.433,10.433,0,0,1,.334,1.123,10.681,10.681,0,0,1,.274,1.956.7.7,0,0,0,.7.668v3.163a1.807,1.807,0,0,0,1.805,1.805h3.042a1.807,1.807,0,0,0,1.805-1.805v-3.163a.7.7,0,0,0,.7-.668,10.634,10.634,0,0,1,2.18-5.915,7.709,7.709,0,0,0,1.573-4.69A7.844,7.844,0,0,0,134.547,95.674Zm-6.116,16.892h-3.042a.975.975,0,0,1-.964-.841h4.97A.975.975,0,0,1,128.43,112.566Zm.974-3.513h-1.683a.416.416,0,0,0,0,.831H129.4v1.01h-4.991v-1.01h.7a.416.416,0,0,0,0-.831h-.7v-.624H129.4Z" transform="translate(-119.13 -89.378)"/>
      </g>
    </g>
    <g id="Group_50" data-name="Group 50" transform="translate(28.078 9.855)">
      <g id="Group_49" data-name="Group 49">
        <path id="Path_126" data-name="Path 126" d="M214.965,177.334l-.037-.014v-2.413l.061,0a2.513,2.513,0,0,1,1.033.3.836.836,0,0,0,.33.119c.292,0,.444-.386.444-.592,0-.282-.33-.459-.606-.557a4.176,4.176,0,0,0-1.207-.206l-.055,0v-.363c0-.1-.144-.205-.285-.205-.169,0-.274.106-.274.205v.382l-.051.005a2.1,2.1,0,0,0-2.114,2.062c0,1.423,1.13,1.825,2.127,2.179l.038.013v2.779l-.061,0a2.314,2.314,0,0,1-1.437-.646c-.159-.135-.285-.242-.4-.242-.241,0-.467.334-.467.593,0,.51.9,1.265,2.314,1.287h.056v.409c0,.1.1.205.274.205.141,0,.285-.1.285-.205v-.437l.049-.007A2.159,2.159,0,0,0,217,179.7C217,178.207,216,177.713,214.965,177.334Zm-.527-.188-.077-.029c-.618-.233-1.13-.482-1.13-1.17,0-.569.4-.92,1.143-1.013l.064-.008Zm.489,3.858-.067.012v-2.558l.079.034a1.385,1.385,0,0,1,1.037,1.328A1.143,1.143,0,0,1,214.927,181Z" transform="translate(-212 -173.407)"/>
      </g>
    </g>
  </g>
</svg>
