<svg xmlns="http://www.w3.org/2000/svg" xmlns:xlink="http://www.w3.org/1999/xlink" width="31" height="31" viewBox="0 0 31 31">
  <defs>
    <filter id="ic_insert_chart_24px" x="0" y="0" width="31" height="31" filterUnits="userSpaceOnUse">
      <feOffset dy="3" input="SourceAlpha"/>
      <feGaussianBlur stdDeviation="3" result="blur"/>
      <feFlood flood-opacity="0.161"/>
      <feComposite operator="in" in2="blur"/>
      <feComposite in="SourceGraphic"/>
    </filter>
  </defs>
  <g transform="matrix(1, 0, 0, 1, 0, 0)" filter="url(#ic_insert_chart_24px)">
    <path id="ic_insert_chart_24px-2" data-name="ic_insert_chart_24px" d="M14.556,3H4.444A1.449,1.449,0,0,0,3,4.444V14.556A1.449,1.449,0,0,0,4.444,16H14.556A1.449,1.449,0,0,0,16,14.556V4.444A1.449,1.449,0,0,0,14.556,3ZM7.333,13.111H5.889V8.056H7.333Zm2.889,0H8.778V5.889h1.444Zm2.889,0H11.667V10.222h1.444Z" transform="translate(6 3)"/>
  </g>
</svg>
