<svg xmlns="http://www.w3.org/2000/svg" width="21" height="17.042" viewBox="0 0 21 17.042"><defs><style>.a{stroke:#000;}</style></defs><g transform="translate(0.5 -3.5)"><path class="a" d="M19.5,16H4.5a.5.5,0,0,1,0-1h15a.5.5,0,0,1,0,1Z" transform="translate(0 3.042)"/><path class="a" d="M19.5,11H4.5a.5.5,0,0,1,0-1h15a.5.5,0,0,1,0,1Z" transform="translate(0 1.521)"/><path class="a" d="M19.5,6H4.5a.5.5,0,0,1,0-1h15a.5.5,0,0,1,0,1Z"/><path class="a" d="M1.5,7A1.5,1.5,0,1,1,3,5.5,1.5,1.5,0,0,1,1.5,7Zm0-2a.5.5,0,1,0,.5.5A.5.5,0,0,0,1.5,5Z"/><path class="a" d="M1.5,12A1.5,1.5,0,1,1,3,10.5,1.5,1.5,0,0,1,1.5,12Zm0-2a.5.5,0,1,0,.5.5A.5.5,0,0,0,1.5,10Z" transform="translate(0 1.521)"/><path class="a" d="M1.5,17A1.5,1.5,0,1,1,3,15.5,1.5,1.5,0,0,1,1.5,17Zm0-2a.5.5,0,1,0,.5.5A.5.5,0,0,0,1.5,15Z" transform="translate(0 3.042)"/></g></svg>