<svg xmlns="http://www.w3.org/2000/svg" width="28.335" height="37.054" viewBox="0 0 28.335 37.054"><path d="M28.066,15.078h-1.09V11.808a9.808,9.808,0,1,0-19.617,0v3.269H6.269A3.273,3.273,0,0,0,3,18.347V35.785a3.273,3.273,0,0,0,3.269,3.269h21.8a3.273,3.273,0,0,0,3.269-3.269V18.347A3.273,3.273,0,0,0,28.066,15.078ZM9.539,11.808a7.629,7.629,0,0,1,15.258,0v3.269H9.539ZM29.156,35.785a1.09,1.09,0,0,1-1.09,1.09H6.269a1.09,1.09,0,0,1-1.09-1.09V18.347a1.09,1.09,0,0,1,1.09-1.09h21.8a1.09,1.09,0,0,1,1.09,1.09Z" transform="translate(-3 -2)"/></svg>