<svg xmlns="http://www.w3.org/2000/svg" xmlns:xlink="http://www.w3.org/1999/xlink" width="20" height="26" viewBox="0 0 20 26">
  <defs>
    <filter id="Icon" x="0" y="0" width="20" height="26" filterUnits="userSpaceOnUse">
      <feOffset dy="3" input="SourceAlpha"/>
      <feGaussianBlur stdDeviation="3" result="blur"/>
      <feFlood flood-opacity="0.161"/>
      <feComposite operator="in" in2="blur"/>
      <feComposite in="SourceGraphic"/>
    </filter>
  </defs>
  <g transform="matrix(1, 0, 0, 1, 0, 0)" filter="url(#Icon)">
    <path id="Icon-2" data-name="Icon" d="M254-61a1,1,0,0,0,1-1,1,1,0,0,0-1-1,1,1,0,0,0-1,1,1,1,0,0,0,1,1Zm0,1a1,1,0,0,0-1,1,1,1,0,0,0,1,1,1,1,0,0,0,1-1,1,1,0,0,0-1-1Zm0,3a1,1,0,0,0-1,1,1,1,0,0,0,1,1,1,1,0,0,0,1-1,1,1,0,0,0-1-1Z" transform="translate(-244 69)" fill="#909292" fill-rule="evenodd"/>
  </g>
</svg>
