<svg xmlns="http://www.w3.org/2000/svg" width="46" height="46" viewBox="0 0 46 46">
  <g id="music" transform="translate(-12 -89)">
    <g id="Ellipse_2" data-name="Ellipse 2" transform="translate(12 89)" fill="#fff" stroke="#888" stroke-width="1">
      <circle cx="23" cy="23" r="23" stroke="none"/>
      <circle cx="23" cy="23" r="22.5" fill="none"/>
    </g>
    <g id="headphones" transform="translate(22.587 99.594)">
      <path id="Path_107" data-name="Path 107" d="M25.178,14.689a12.591,12.591,0,0,0-21.492-8.9A12.511,12.511,0,0,0,0,14.689v5.96a6.12,6.12,0,0,0,6.111,6.111.725.725,0,0,0,.728-.728V15.271a.725.725,0,0,0-.728-.728A6.091,6.091,0,0,0,1.455,16.7v-2.01a11.134,11.134,0,0,1,22.268,0,.669.669,0,0,0,.016.146.669.669,0,0,0-.016.146v2.01a6.091,6.091,0,0,0-4.656-2.156.725.725,0,0,0-.728.728V26.324a.725.725,0,0,0,.728.728,6.12,6.12,0,0,0,6.111-6.111V14.98a.669.669,0,0,0-.016-.146A.669.669,0,0,0,25.178,14.689Zm-19.8,1.363v9.194a4.654,4.654,0,0,1,0-9.194ZM19.8,25.538V16.344a4.654,4.654,0,0,1,0,9.194Z" transform="translate(0 -2.1)"/>
    </g>
  </g>
</svg>
