<svg id="newspaper" xmlns="http://www.w3.org/2000/svg" width="30.585" height="22.512" viewBox="0 0 30.585 22.512">
  <path id="Path_111" data-name="Path 111" d="M29.991,63.253a1.35,1.35,0,0,0-1.316.118l-8.466,5.014a.458.458,0,0,0-.158.654.523.523,0,0,0,.7.149l8.466-5.014c.179-.106.277-.1.291-.091s.074.081.074.28a2.059,2.059,0,0,1-.9,1.537l-8.207,4.861a1.2,1.2,0,0,1-1.095.195,1.043,1.043,0,0,1-.408-.975A4.583,4.583,0,0,1,21,66.506l9.345-5.534a.46.46,0,0,0,0-.8L12.393,49.534a.531.531,0,0,0-.537,0L2.4,55.136A5.225,5.225,0,0,0,0,59.22v.253a5.225,5.225,0,0,0,2.4,4.084l14.069,8.332a.523.523,0,0,0,.7-.149A.458.458,0,0,0,17,71.086L2.934,62.754a4.327,4.327,0,0,1-1.926-3.281V59.22a4.327,4.327,0,0,1,1.926-3.281l9.19-5.443L29.135,60.57,20.467,65.7a5.473,5.473,0,0,0-2.511,4.278,1.9,1.9,0,0,0,.929,1.805,1.69,1.69,0,0,0,.787.187A2.645,2.645,0,0,0,21,71.563L29.212,66.7a2.993,2.993,0,0,0,1.373-2.339A1.186,1.186,0,0,0,29.991,63.253Z" transform="translate(0 -49.461)"/>
  <path id="Path_112" data-name="Path 112" d="M184.3,116.4a.474.474,0,0,0,.253-.875l-10.956-6.9a.474.474,0,1,0-.505.8l10.956,6.9A.472.472,0,0,0,184.3,116.4Z" transform="translate(-160.762 -104.813)"/>
  <path id="Path_113" data-name="Path 113" d="M248.077,195.523a.474.474,0,0,0,.252-.876l-4.628-2.9a.474.474,0,0,0-.5.8l4.628,2.9A.471.471,0,0,0,248.077,195.523Z" transform="translate(-226.408 -182.682)"/>
  <path id="Path_114" data-name="Path 114" d="M213.155,211.492a.474.474,0,1,0-.5.8l4.664,2.912a.474.474,0,0,0,.5-.8Z" transform="translate(-197.944 -201.181)"/>
  <path id="Path_115" data-name="Path 115" d="M83.538,128.25,79.6,130.731a.474.474,0,0,0,0,.8l4.7,2.922a.474.474,0,0,0,.508,0l1.047-.676a.474.474,0,0,0-.515-.8l-.794.513-3.8-2.363,3.047-1.919,3.745,2.348-.437.282a.474.474,0,1,0,.515.8l1.062-.686a.474.474,0,0,0-.006-.8l-4.629-2.9A.474.474,0,0,0,83.538,128.25Z" transform="translate(-73.883 -123.2)"/>
  <path id="Path_116" data-name="Path 116" d="M187.459,234.81a.474.474,0,0,0-.152-.653l-4.7-2.922a.474.474,0,0,0-.5.805l4.7,2.922a.474.474,0,0,0,.653-.152Z" transform="translate(-169.478 -219.677)"/>
  <path id="Path_117" data-name="Path 117" d="M52.467,189.546a.474.474,0,0,0,.152.653l11.6,7.212a.474.474,0,0,0,.5-.805l-11.6-7.212A.474.474,0,0,0,52.467,189.546Z" transform="translate(-49.083 -180.48)"/>
</svg>
