<svg xmlns="http://www.w3.org/2000/svg" width="46" height="46" viewBox="0 0 46 46">
  <g id="news" transform="translate(-12 -89)">
    <g id="Ellipse_2" data-name="Ellipse 2" transform="translate(12 89)" fill="#fff" stroke="#888" stroke-width="1">
      <circle cx="23" cy="23" r="23" stroke="none"/>
      <circle cx="23" cy="23" r="22.5" fill="none"/>
    </g>
    <g id="newspaper" transform="translate(18.286 99.793)">
      <path id="Path_111" data-name="Path 111" d="M32.959,64.618a1.483,1.483,0,0,0-1.446.13l-9.3,5.51a.5.5,0,0,0-.174.719.575.575,0,0,0,.764.163l9.3-5.51c.2-.116.3-.108.32-.1s.081.089.081.308a2.263,2.263,0,0,1-.991,1.689l-9.02,5.342a1.316,1.316,0,0,1-1.2.214,1.146,1.146,0,0,1-.448-1.072,5.036,5.036,0,0,1,2.242-3.819l10.27-6.082a.505.505,0,0,0,0-.882L13.62,49.542a.584.584,0,0,0-.59,0L2.634,55.7A5.742,5.742,0,0,0,0,60.186v.278a5.742,5.742,0,0,0,2.634,4.488L18.1,74.108a.575.575,0,0,0,.764-.163.5.5,0,0,0-.174-.719L3.225,64.07a4.755,4.755,0,0,1-2.117-3.606v-.278A4.755,4.755,0,0,1,3.225,56.58l10.1-5.981L32.019,61.67l-9.525,5.641a6.014,6.014,0,0,0-2.759,4.7A2.085,2.085,0,0,0,20.755,74a1.858,1.858,0,0,0,.865.205,2.907,2.907,0,0,0,1.464-.45l9.02-5.342a3.289,3.289,0,0,0,1.509-2.571A1.3,1.3,0,0,0,32.959,64.618Z" transform="translate(0 -49.461)"/>
      <path id="Path_112" data-name="Path 112" d="M185.432,117.173a.521.521,0,0,0,.278-.962l-12.04-7.582a.521.521,0,1,0-.555.882l12.04,7.582A.519.519,0,0,0,185.432,117.173Z" transform="translate(-159.564 -104.444)"/>
      <path id="Path_113" data-name="Path 113" d="M248.582,195.9a.521.521,0,0,0,.277-.963l-5.086-3.189a.521.521,0,0,0-.554.883l5.086,3.189A.518.518,0,0,0,248.582,195.9Z" transform="translate(-224.769 -181.792)"/>
      <path id="Path_114" data-name="Path 114" d="M213.227,211.5a.521.521,0,0,0-.552.884l5.126,3.2a.521.521,0,0,0,.552-.884Z" transform="translate(-196.511 -200.167)"/>
      <path id="Path_115" data-name="Path 115" d="M83.95,128.257l-4.331,2.727a.521.521,0,0,0,0,.883l5.165,3.211a.521.521,0,0,0,.558,0l1.15-.743a.521.521,0,1,0-.566-.875l-.873.564-4.177-2.6,3.349-2.109,4.116,2.581-.48.31a.521.521,0,1,0,.566.875l1.167-.754a.521.521,0,0,0-.006-.879l-5.087-3.19A.521.521,0,0,0,83.95,128.257Z" transform="translate(-73.34 -122.708)"/>
      <path id="Path_116" data-name="Path 116" d="M188.011,235.171a.521.521,0,0,0-.167-.718l-5.165-3.211a.521.521,0,0,0-.55.885l5.165,3.211a.521.521,0,0,0,.718-.167Z" transform="translate(-168.251 -218.54)"/>
      <path id="Path_117" data-name="Path 117" d="M52.474,189.568a.521.521,0,0,0,.167.718l12.748,7.926a.521.521,0,0,0,.55-.885L53.191,189.4A.521.521,0,0,0,52.474,189.568Z" transform="translate(-48.755 -179.605)"/>
    </g>
  </g>
</svg>
