<svg id="paint-palette" xmlns="http://www.w3.org/2000/svg" width="27.17" height="27.377" viewBox="0 0 27.17 27.377">
  <g id="Group_9" data-name="Group 9" transform="translate(17.43 12.084)">
    <g id="Group_8" data-name="Group 8">
      <ellipse id="Ellipse_3" data-name="Ellipse 3" cx="0.535" cy="0.535" rx="0.535" ry="0.535"/>
    </g>
  </g>
  <g id="Group_11" data-name="Group 11" transform="translate(9.964 14.904)">
    <g id="Group_10" data-name="Group 10">
      <path id="Path_100" data-name="Path 100" d="M196.385,278.744a.535.535,0,0,0-.607.451,2.913,2.913,0,0,1-2.231,2.189,4.275,4.275,0,0,1-4.325-.96.535.535,0,0,0-.788.723,4.712,4.712,0,0,0,2.574,1.407,5.7,5.7,0,0,0,1.119.109,5.938,5.938,0,0,0,1.733-.257,3.946,3.946,0,0,0,2.975-3.055A.535.535,0,0,0,196.385,278.744Z" transform="translate(-188.293 -278.738)"/>
    </g>
  </g>
  <g id="Group_13" data-name="Group 13" transform="translate(0)">
    <g id="Group_12" data-name="Group 12" transform="translate(0)">
      <path id="Path_101" data-name="Path 101" d="M27.429,10.181A6.62,6.62,0,0,0,23.5,8.031a30.336,30.336,0,0,0,3.83-2.987c1.45-1.381,1.936-2.352,1.53-3.054-.452-.782-1.755-.777-4.1.017A41.063,41.063,0,0,0,17.8,5.288c-.432.25-.861.505-1.28.763A2.872,2.872,0,0,1,17.1,3.3a2.044,2.044,0,0,0,.3-2.159A2.16,2.16,0,0,0,15.373,0h-.025A13.272,13.272,0,0,0,6.364,3.624a13.476,13.476,0,0,0-4.369,8.722A13.734,13.734,0,0,0,15.628,27.377a14.588,14.588,0,0,0,5.726-1.116,12.886,12.886,0,0,0,4.217-2.874,12.7,12.7,0,0,0,2.608-3.9,11.316,11.316,0,0,0,.929-4.225A7.457,7.457,0,0,0,27.429,10.181ZM16.582,7.271c.566-.357,1.155-.713,1.752-1.057a41.224,41.224,0,0,1,6.49-3.1c2.059-.729,2.9-.681,3.1-.587-.017.124-.172.678-1.523,1.922a34.023,34.023,0,0,1-4.64,3.441c-.589.373-1.2.744-1.822,1.1-.855.493-1.709.955-2.547,1.377a8.011,8.011,0,0,0-1.516-2.643Q16.223,7.5,16.582,7.271Zm-.16,3.573a27.419,27.419,0,0,1-4,1.579A2.668,2.668,0,0,0,11.614,11,27.5,27.5,0,0,1,14.98,8.327a6.971,6.971,0,0,1,1.442,2.516Zm11.617,4.4c-.076,5.321-4.843,11.064-12.411,11.064a12.621,12.621,0,0,1-.28-25.238h.024a1.109,1.109,0,0,1,1.064.538.974.974,0,0,1-.176,1.031A3.925,3.925,0,0,0,15.6,6.63c-.287.185-.568.37-.841.554l0,0a28.481,28.481,0,0,0-4.091,3.249,2.659,2.659,0,0,0-2.2.215c-1.111.642-2.57,3.632-2.851,4.225a.535.535,0,0,0,.44.762c.3.024,1.135.084,2.069.084a7.287,7.287,0,0,0,3.016-.441,2.667,2.667,0,0,0,1.275-1.749,28.287,28.287,0,0,0,4.88-1.922c1.04-.506,2.109-1.075,3.178-1.692.542-.313,1.079-.636,1.6-.962h.009C26.539,9.086,28.081,12.289,28.039,15.244ZM11.4,13.067a1.6,1.6,0,0,1-.8,1.289,10.4,10.4,0,0,1-3.669.266A10.4,10.4,0,0,1,9,11.577a1.6,1.6,0,0,1,2.4,1.49Z" transform="translate(-1.94)"/>
    </g>
  </g>
  <g id="Group_15" data-name="Group 15" transform="translate(7.271 3.307)">
    <g id="Group_14" data-name="Group 14">
      <path id="Path_102" data-name="Path 102" d="M140.061,61.84a2.139,2.139,0,1,0,2.139,2.139A2.141,2.141,0,0,0,140.061,61.84Zm0,3.208a1.069,1.069,0,1,1,1.069-1.069A1.071,1.071,0,0,1,140.061,65.048Z" transform="translate(-137.922 -61.84)"/>
    </g>
  </g>
  <g id="Group_17" data-name="Group 17" transform="translate(4.598 17.675)">
    <g id="Group_16" data-name="Group 16">
      <path id="Path_103" data-name="Path 103" d="M90.061,330.55a2.139,2.139,0,1,0,2.139,2.139A2.141,2.141,0,0,0,90.061,330.55Zm0,3.208a1.069,1.069,0,1,1,1.069-1.069A1.071,1.071,0,0,1,90.061,333.758Z" transform="translate(-87.922 -330.55)"/>
    </g>
  </g>
  <g id="Group_19" data-name="Group 19" transform="translate(9.945 20.883)">
    <g id="Group_18" data-name="Group 18">
      <path id="Path_104" data-name="Path 104" d="M190.061,390.55a2.139,2.139,0,1,0,2.139,2.139A2.141,2.141,0,0,0,190.061,390.55Zm0,3.208a1.069,1.069,0,1,1,1.069-1.069A1.071,1.071,0,0,1,190.061,393.758Z" transform="translate(-187.922 -390.55)"/>
    </g>
  </g>
  <g id="Group_21" data-name="Group 21" transform="translate(16.361 19.814)">
    <g id="Group_20" data-name="Group 20">
      <path id="Path_105" data-name="Path 105" d="M310.061,370.55a2.139,2.139,0,1,0,2.139,2.139A2.141,2.141,0,0,0,310.061,370.55Zm0,3.208a1.069,1.069,0,1,1,1.069-1.069A1.071,1.071,0,0,1,310.061,373.758Z" transform="translate(-307.922 -370.55)"/>
    </g>
  </g>
  <g id="Group_23" data-name="Group 23" transform="translate(20.639 14.466)">
    <g id="Group_22" data-name="Group 22">
      <path id="Path_106" data-name="Path 106" d="M390.061,270.55a2.139,2.139,0,1,0,2.139,2.139A2.141,2.141,0,0,0,390.061,270.55Zm0,3.208a1.069,1.069,0,1,1,1.069-1.069A1.071,1.071,0,0,1,390.061,273.758Z" transform="translate(-387.922 -270.55)"/>
    </g>
  </g>
</svg>
