<svg xmlns="http://www.w3.org/2000/svg" width="15" height="15.011" viewBox="0 0 15 15.011"><defs><style>.a{fill:#434343;}</style></defs><path class="a" d="M12.012,15.011a9.316,9.316,0,0,1-4.2-1.12,15.442,15.442,0,0,1-3.844-2.837A15.475,15.475,0,0,1,1.131,7.206,9.338,9.338,0,0,1,.013,3,3.221,3.221,0,0,1,1.161.991,3.419,3.419,0,0,1,3,0,1.71,1.71,0,0,1,4.046.581,9.925,9.925,0,0,1,5.084,1.74a6.46,6.46,0,0,1,1.3,2.388c0,.561-.634.951-1.305,1.363a7.465,7.465,0,0,0-.721.48c-.207.166-.244.254-.25.273A9.926,9.926,0,0,0,8.77,10.908c.016-.005.1-.04.272-.25a7.559,7.559,0,0,0,.48-.721c.413-.671.8-1.305,1.363-1.305a6.46,6.46,0,0,1,2.388,1.3,9.925,9.925,0,0,1,1.159,1.038,1.708,1.708,0,0,1,.581,1.041,3.442,3.442,0,0,1-.99,1.849,3.22,3.22,0,0,1-2.012,1.154ZM3,.751a2.819,2.819,0,0,0-1.331.792A2.427,2.427,0,0,0,.764,3c0,5.05,6.2,11.258,11.247,11.258a2.424,2.424,0,0,0,1.459-.91,2.835,2.835,0,0,0,.793-1.337c-.024-.143-.419-.7-1.5-1.529a5.867,5.867,0,0,0-1.875-1.1c-.014,0-.1.036-.268.252a8.1,8.1,0,0,0-.46.695c-.42.684-.817,1.33-1.394,1.33a.728.728,0,0,1-.272-.053A10.637,10.637,0,0,1,3.407,6.518c-.095-.236-.11-.607.356-1.029a6.5,6.5,0,0,1,.922-.639,7.651,7.651,0,0,0,.695-.46c.216-.17.248-.254.252-.268a5.883,5.883,0,0,0-1.1-1.875C3.7,1.167,3.143.773,3,.748Z" transform="translate(-0.013 0)"/></svg>