<svg xmlns="http://www.w3.org/2000/svg" width="19.862" height="15.881" viewBox="0 0 19.862 15.881"><defs><style>.a{fill:#434343;}</style></defs><g transform="translate(0 0)"><path class="a" d="M17.894,8.9a6.558,6.558,0,0,1-3.516-.963,2.089,2.089,0,0,1-.515-1.177c-.085-.448-.136-.581-.332-.666a9.454,9.454,0,0,0-3.551-.61,9.409,9.409,0,0,0-3.512.6c-.194.083-.244.216-.327.663a2.083,2.083,0,0,1-.512,1.179A3.694,3.694,0,0,1,4.1,8.608a8.429,8.429,0,0,1-1.963.267A1.9,1.9,0,0,1,.761,8.489,2.383,2.383,0,0,1,.076,7.022,2.184,2.184,0,0,1,.756,5.26,10.1,10.1,0,0,1,4.842,2.892a16.731,16.731,0,0,1,5.114-.773,16.836,16.836,0,0,1,5.156.782,10.216,10.216,0,0,1,4.124,2.393,2.23,2.23,0,0,1,.012,3.221,1.876,1.876,0,0,1-1.354.382ZM9.98,4.481a10.348,10.348,0,0,1,3.946.691,1.638,1.638,0,0,1,.92,1.4,1.256,1.256,0,0,0,.24.656,6.118,6.118,0,0,0,2.809.671,1.384,1.384,0,0,0,.652-.094A1.23,1.23,0,0,0,18.53,6c-1.805-1.8-5.01-2.882-8.574-2.882-3.535,0-6.709,1.065-8.493,2.848a1.205,1.205,0,0,0-.391.974,1.387,1.387,0,0,0,.39.836,1.4,1.4,0,0,0,.67.1,6.1,6.1,0,0,0,2.789-.659,1.25,1.25,0,0,0,.236-.654,1.63,1.63,0,0,1,.917-1.4,10.263,10.263,0,0,1,3.9-.68Z" transform="translate(-0.069 -2.119)"/><path class="a" d="M16.5,18H3.5a2.375,2.375,0,0,1-2.388-2.525,8.621,8.621,0,0,1,1.27-3.739A7.5,7.5,0,0,1,5.068,9.159,9.919,9.919,0,0,1,10,8a9.919,9.919,0,0,1,4.932,1.159,7.483,7.483,0,0,1,2.686,2.577,8.629,8.629,0,0,1,1.27,3.739A2.375,2.375,0,0,1,16.5,18ZM10,9c-3.117,0-5.388,1.088-6.749,3.233a7.741,7.741,0,0,0-1.14,3.3A1.375,1.375,0,0,0,3.5,17h13a1.375,1.375,0,0,0,1.39-1.469,7.759,7.759,0,0,0-1.14-3.3C15.389,10.088,13.118,9,10,9Z" transform="translate(-0.069 -2.119)"/><path class="a" d="M10,16a3,3,0,1,1,3-3A3,3,0,0,1,10,16Zm0-5a2,2,0,1,0,2,2A2,2,0,0,0,10,11Z" transform="translate(-0.069 -2.119)"/></g></svg>