<svg id="picture" xmlns="http://www.w3.org/2000/svg" width="17" height="17" viewBox="0 0 17 17">
  <path id="Path_258" data-name="Path 258" d="M15.725,17H1.275A1.277,1.277,0,0,1,0,15.725V1.275A1.277,1.277,0,0,1,1.275,0h14.45A1.277,1.277,0,0,1,17,1.275v14.45A1.277,1.277,0,0,1,15.725,17ZM1.275.85a.425.425,0,0,0-.425.425v14.45a.425.425,0,0,0,.425.425h14.45a.425.425,0,0,0,.425-.425V1.275A.425.425,0,0,0,15.725.85Z"/>
  <path id="Path_259" data-name="Path 259" d="M13,9a2,2,0,1,1,2-2A2,2,0,0,1,13,9Zm0-3a1,1,0,1,0,1,1A1,1,0,0,0,13,6Z" transform="translate(-2.063 -0.938)"/>
  <path id="Path_260" data-name="Path 260" d="M14.594,2H2.406A.437.437,0,0,0,2,2.462V13.538A.437.437,0,0,0,2.406,14H14.594A.437.437,0,0,0,15,13.538V2.462A.437.437,0,0,0,14.594,2ZM2.813,10.945,5.42,7.611A.3.3,0,0,1,5.913,7.6l4.5,5.472h-7.6V10.945Zm11.375,2.132H11.52l-5.012-6.1A1.047,1.047,0,0,0,4.813,7l-2,2.557V2.923H14.188Z"/>
</svg>
