<svg xmlns="http://www.w3.org/2000/svg" width="30.406" height="30.405" viewBox="0 0 30.406 30.405"><g transform="translate(0 -1)"><path d="M25.954,5.452a15.2,15.2,0,0,0-21.5,21.5,15.2,15.2,0,0,0,21.5-21.5ZM15.2,29.806a13.6,13.6,0,1,1,13.6-13.6A13.618,13.618,0,0,1,15.2,29.806Z"/><path d="M12.2,21.6a.8.8,0,0,1-.8-.8V17.6a.8.8,0,0,1,.8-.8,5.6,5.6,0,1,0-5.6-5.6.8.8,0,0,1-1.6,0,7.2,7.2,0,1,1,8,7.157V20.8A.8.8,0,0,1,12.2,21.6Z" transform="translate(3.002 1.801)"/><path d="M9.8,19.2h0a.8.8,0,0,1-.8-.8V16.8a.8.8,0,0,1,.8-.8h0a.8.8,0,0,1,.8.8v1.6A.8.8,0,0,1,9.8,19.2Z" transform="translate(5.403 9.005)"/></g></svg>