<svg xmlns="http://www.w3.org/2000/svg" width="20" height="20" viewBox="0 0 20 20">
  <g id="ic_sentiment_dissatisfied_24px" transform="translate(-2 -2)">
    <circle id="Ellipse_31" data-name="Ellipse 31" cx="1.5" cy="1.5" r="1.5" transform="translate(14 8)" fill="#c44f4f"/>
    <circle id="Ellipse_32" data-name="Ellipse 32" cx="1.5" cy="1.5" r="1.5" transform="translate(7 8)" fill="#c44f4f"/>
    <path id="Path_109" data-name="Path 109" d="M11.99,2A10,10,0,1,0,22,12,10,10,0,0,0,11.99,2ZM12,20a8,8,0,1,1,8-8A8,8,0,0,1,12,20Zm0-6a5.5,5.5,0,0,0-5.12,3.5H8.55a3.976,3.976,0,0,1,6.9,0h1.67A5.5,5.5,0,0,0,12,14Z" fill="#c44f4f"/>
  </g>
</svg>
