<svg xmlns="http://www.w3.org/2000/svg" width="19.001" height="20.001" viewBox="0 0 19.001 20.001"><path d="M5.5,15h-4A1.5,1.5,0,0,1,0,13.5V1.5A1.5,1.5,0,0,1,1.5,0h14A1.5,1.5,0,0,1,17,1.5v7a.5.5,0,0,1-1,0v-7a.5.5,0,0,0-.5-.5H1.5a.5.5,0,0,0-.5.5v12a.5.5,0,0,0,.5.5h4a.5.5,0,0,1,0,1Z"/><path d="M13,20a.5.5,0,0,1-.464-.314l-1.7-4.242L7.876,18.83A.5.5,0,0,1,7,18.5V3.5a.5.5,0,0,1,.837-.37l11,10A.5.5,0,0,1,18.5,14H14.24l1.726,4.314a.5.5,0,0,1-.279.65l-2.5,1A.508.508,0,0,1,13,20Zm-2-6a.476.476,0,0,1,.084.007.5.5,0,0,1,.38.307l1.814,4.536,1.572-.629-1.814-4.536A.5.5,0,0,1,13.5,13h3.707L8,4.629V17.168l2.624-3A.5.5,0,0,1,11,14Z"/></svg>