<svg xmlns="http://www.w3.org/2000/svg" width="16" height="17.92" viewBox="0 0 16 17.92">
  <path id="Icon" d="M339.333-12.334a2.572,2.572,0,0,0-1.742.693l-6.338-3.733a2.979,2.979,0,0,0,.08-.63,2.979,2.979,0,0,0-.08-.63l6.267-3.7a2.638,2.638,0,0,0,1.813.729A2.679,2.679,0,0,0,342-22.3a2.679,2.679,0,0,0-2.667-2.7,2.679,2.679,0,0,0-2.667,2.7,2.979,2.979,0,0,0,.08.63l-6.267,3.7a2.638,2.638,0,0,0-1.813-.729A2.679,2.679,0,0,0,326-16a2.679,2.679,0,0,0,2.667,2.7,2.638,2.638,0,0,0,1.813-.729l6.329,3.742a2.566,2.566,0,0,0-.071.585,2.614,2.614,0,0,0,2.6,2.627,2.614,2.614,0,0,0,2.6-2.627,2.614,2.614,0,0,0-2.6-2.627Z" transform="translate(-326 25)" fill="#0d0d0d" fill-rule="evenodd"/>
</svg>
