<svg xmlns="http://www.w3.org/2000/svg" width="19" height="19" viewBox="0 0 19 19">
  <g id="smile" transform="translate(0 0)">
    <path id="Path_248" data-name="Path 248" d="M9.5,20A9.5,9.5,0,0,1,2.782,3.783,9.5,9.5,0,0,1,16.218,17.218,9.438,9.438,0,0,1,9.5,20Zm0-18A8.5,8.5,0,1,0,18,10.5,8.51,8.51,0,0,0,9.5,2Z" transform="translate(0 -1)"/>
    <path id="Path_249" data-name="Path 249" d="M6.5,8A1.5,1.5,0,1,1,8,6.5,1.5,1.5,0,0,1,6.5,8Zm0-2a.5.5,0,1,0,.5.5A.5.5,0,0,0,6.5,6Z" transform="translate(0 -1)"/>
    <path id="Path_250" data-name="Path 250" d="M12.5,8A1.5,1.5,0,1,1,14,6.5,1.5,1.5,0,0,1,12.5,8Zm0-2a.5.5,0,1,0,.5.5A.5.5,0,0,0,12.5,6Z" transform="translate(0 -1)"/>
    <path id="Path_251" data-name="Path 251" d="M9.5,17A6.508,6.508,0,0,1,3,10.5a.5.5,0,0,1,1,0,5.5,5.5,0,0,0,11,0,.5.5,0,0,1,1,0A6.508,6.508,0,0,1,9.5,17Z" transform="translate(0 -1)"/>
  </g>
</svg>
