<svg xmlns="http://www.w3.org/2000/svg" width="46" height="46" viewBox="0 0 46 46">
  <g id="technology" transform="translate(-12 -89)">
    <g id="Ellipse_2" data-name="Ellipse 2" transform="translate(12 89)" fill="#fff" stroke="#888" stroke-width="1">
      <circle cx="23" cy="23" r="23" stroke="none"/>
      <circle cx="23" cy="23" r="22.5" fill="none"/>
    </g>
    <g id="chip" transform="translate(19.649 96.815)">
      <g id="Group_25" data-name="Group 25" transform="translate(5.713 0)">
        <g id="Group_24" data-name="Group 24">
          <path id="Path_108" data-name="Path 108" d="M120.454,14.759h-7.172V13.746h1.935a.445.445,0,0,0,0-.891h-1.935V11.841h1.343a1.861,1.861,0,0,0,1.325-.549l2.929-2.929a1.4,1.4,0,1,0-.63-.63l-2.929,2.929a.976.976,0,0,1-.695.288h-1.343V9.968a2.352,2.352,0,0,0-2.35-2.35h-.983V3.675a1.4,1.4,0,1,0-.891,0V7.618h-1.013V5.683a.445.445,0,0,0-.891,0V7.618h-1.013V.446a.445.445,0,0,0-.891,0V7.618h-1.013V5.683a.445.445,0,1,0-.891,0V7.618h-1.013V6.275a1.861,1.861,0,0,0-.549-1.325l-2.93-2.93a1.4,1.4,0,1,0-.63.63l2.93,2.93a.976.976,0,0,1,.288.695V7.618h-.983a2.36,2.36,0,0,0-.587.074.445.445,0,0,0,.222.863,1.467,1.467,0,0,1,.365-.046h10.473a1.46,1.46,0,0,1,1.459,1.459V20.441a1.467,1.467,0,0,1-.046.365.445.445,0,1,0,.863.222,2.357,2.357,0,0,0,.074-.587v-.983h3.943a1.4,1.4,0,1,0,0-.891h-3.943V17.554h1.935a.445.445,0,0,0,0-.891h-1.935V15.65h7.172a.445.445,0,1,0,0-.891Zm-1.31-8.006a.507.507,0,1,1-.148.358A.5.5,0,0,1,119.143,6.753Zm-21.182-5a.506.506,0,1,1,0-.717A.507.507,0,0,1,97.961,1.757Zm11.543,1.1a.507.507,0,1,1,.507-.507A.507.507,0,0,1,109.5,2.857Zm9.045,15.649a.507.507,0,1,1-.507.507A.507.507,0,0,1,118.549,18.506Z" transform="translate(-96.206 -0.001)"/>
        </g>
      </g>
      <g id="Group_27" data-name="Group 27" transform="translate(0 9.045)">
        <g id="Group_26" data-name="Group 26">
          <path id="Path_109" data-name="Path 109" d="M24.285,171.282a1.4,1.4,0,0,0-1.609-.263l-2.93-2.93a.976.976,0,0,1-.288-.695v-1.343h.983a2.358,2.358,0,0,0,.587-.074.445.445,0,1,0-.222-.863,1.466,1.466,0,0,1-.365.046H9.967A1.46,1.46,0,0,1,8.508,163.7V153.228a1.465,1.465,0,0,1,.046-.365.445.445,0,1,0-.863-.222,2.355,2.355,0,0,0-.074.587v.983H3.674a1.4,1.4,0,1,0,0,.891H7.617v1.013H5.682a.445.445,0,1,0,0,.891H7.617v1.013H.445a.445.445,0,1,0,0,.891H7.617v1.013H5.682a.445.445,0,0,0,0,.891H7.617v1.013H6.274a1.861,1.861,0,0,0-1.325.549l-2.929,2.929a1.4,1.4,0,1,0,.63.63l2.929-2.929a.976.976,0,0,1,.695-.288H7.617v.983a2.352,2.352,0,0,0,2.35,2.35h.983v3.943a1.4,1.4,0,1,0,.891,0v-3.943h1.013v1.935a.445.445,0,0,0,.891,0v-1.935h1.013v7.172a.445.445,0,0,0,.891,0v-7.172h1.013v1.935a.445.445,0,1,0,.891,0v-1.935h1.013v1.343a1.861,1.861,0,0,0,.549,1.325l2.93,2.93a1.4,1.4,0,1,0,2.239-.367ZM2.35,155.163a.507.507,0,1,1,.507-.507A.507.507,0,0,1,2.35,155.163Zm-.594,11.753a.507.507,0,1,1,.148-.358A.5.5,0,0,1,1.756,166.916Zm10.146,4.4a.507.507,0,1,1-.507-.507A.507.507,0,0,1,11.9,171.318Zm11.753,1.31a.506.506,0,1,1,0-.717A.507.507,0,0,1,23.655,172.629Z" transform="translate(0 -152.306)"/>
        </g>
      </g>
      <g id="Group_29" data-name="Group 29" transform="translate(10.474 9.997)">
        <g id="Group_28" data-name="Group 28">
          <path id="Path_110" data-name="Path 110" d="M185.817,172.356a2.151,2.151,0,0,0-1.651-2.022,1.52,1.52,0,0,0,.044-.359,1.717,1.717,0,0,0-1.784-1.636,1.853,1.853,0,0,0-1.339.556,1.853,1.853,0,0,0-1.339-.556,1.717,1.717,0,0,0-1.784,1.636,1.52,1.52,0,0,0,.044.359,2.151,2.151,0,0,0-1.651,2.022,1.956,1.956,0,0,0,.469,1.268,2.2,2.2,0,0,0-.469,1.351,2.294,2.294,0,0,0,1.071,1.9h0a1.971,1.971,0,0,0,2.052,1.874,2.125,2.125,0,0,0,1.607-.71,2.125,2.125,0,0,0,1.607.71,1.985,1.985,0,0,0,2.048-1.758,2.082,2.082,0,0,0,1.075-1.782,2.008,2.008,0,0,0-.619-1.428A2.008,2.008,0,0,0,185.817,172.356Zm-1.576,1.822a1.188,1.188,0,0,1,.685,1.034,1.139,1.139,0,0,1-.392.837,2,2,0,0,0-1.171-.943.445.445,0,0,0-.267.85,1.01,1.01,0,0,1,.759.922,1.178,1.178,0,0,1-2.323,0v-2.856a1.085,1.085,0,0,1,1.161-.983.445.445,0,0,0,0-.891,2.178,2.178,0,0,0-1.161.33v-.569a.445.445,0,0,0-.891,0v2.473a2.122,2.122,0,0,0-.492-.228.445.445,0,0,0-.267.85,1.01,1.01,0,0,1,.759.922v.952a1.178,1.178,0,0,1-2.323,0,.9.9,0,0,1,.277-.636.445.445,0,0,0-.628-.632,1.9,1.9,0,0,0-.275.345,1.359,1.359,0,0,1-.445-.982,1.517,1.517,0,0,1,1.259-1.41.445.445,0,0,0-.2-.868,2.714,2.714,0,0,0-.817.333,1.075,1.075,0,0,1-.243-.673,1.337,1.337,0,0,1,1.418-1.221h.012a.445.445,0,0,0,.378-.68l-.01-.016-.006-.008-.022-.028h0a.661.661,0,0,1-.163-.427.908.908,0,0,1,1.787,0,.445.445,0,1,0,.891,0,.908.908,0,0,1,1.787,0,.626.626,0,0,1-.067.28,2.474,2.474,0,0,0-.731.183.445.445,0,1,0,.346.821,1.608,1.608,0,0,1,.616-.125h.025a1.337,1.337,0,0,1,1.418,1.221,1.188,1.188,0,0,1-.685,1.034.445.445,0,0,0,0,.788Z" transform="translate(-176.357 -168.34)"/>
        </g>
      </g>
    </g>
  </g>
</svg>
