<svg xmlns="http://www.w3.org/2000/svg" width="30.733" height="23.051" viewBox="0 0 30.733 23.051"><g transform="translate(0 -3)"><path d="M25.208,21.219H8.3a2.308,2.308,0,0,1-2.3-2.3,6.12,6.12,0,0,1,1.42-3.557,8.085,8.085,0,0,1,3.27-2.339A16.066,16.066,0,0,1,16.757,12a16.1,16.1,0,0,1,6.067,1.017,8.085,8.085,0,0,1,3.27,2.339,6.107,6.107,0,0,1,1.42,3.557A2.308,2.308,0,0,1,25.208,21.219Zm-17.671-2.3a.768.768,0,0,0,.768.764h16.9a.769.769,0,0,0,.768-.764,4.687,4.687,0,0,0-1.136-2.665c-1.5-1.778-4.292-2.717-8.084-2.717s-6.588.94-8.084,2.717A4.691,4.691,0,0,0,7.537,18.919Z" transform="translate(3.22 4.83)"/><path d="M15.147,15.293a6.147,6.147,0,1,1,6.147-6.147A6.153,6.153,0,0,1,15.147,15.293Zm0-10.757a4.61,4.61,0,1,0,4.61,4.61A4.616,4.616,0,0,0,15.147,4.537Z" transform="translate(4.83 0)"/><path d="M6.915,20.683H2.3a2.308,2.308,0,0,1-2.3-2.3,5.011,5.011,0,0,1,1.019-2.766,5.851,5.851,0,0,1,2.356-1.826A10.625,10.625,0,0,1,7.685,13c.275,0,.547.008.81.022a.769.769,0,1,1-.081,1.535c-.235-.012-.479-.018-.727-.018-5.984,0-6.142,3.656-6.147,3.846a.769.769,0,0,0,.768.764h4.61a.768.768,0,0,1,0,1.537Z" transform="translate(0 5.366)"/><path d="M6.61,15.22a4.61,4.61,0,1,1,4.61-4.61A4.616,4.616,0,0,1,6.61,15.22Zm0-7.683A3.073,3.073,0,1,0,9.683,10.61,3.076,3.076,0,0,0,6.61,7.537Z" transform="translate(1.073 1.61)"/></g></svg>